# xmcd
#
# Track frame offsets:
#	150
#	13699
#	28745
#	43175
#	58668
#	78929
#	95098
#	111832
#	131510
#	150436
#	169399
#	188483
#	208278
#	225455
#	251552
#
# Disc length: 3585 seconds
#
# Revision: 3
# Processed by: cddbd v1.5.2PL0 Copyright (c) Steve Scherf et al.
# Submitted via: audiograbber 1.83.01
#
DISCID=c60dff0f
DTITLE=MIsc - CB193
DYEAR=1900
DGENRE=Country
TTITLE0=Alan Jackson 1 She Just Started Liking Cheating Songs
TTITLE1=Ray J 2 What I Need
TTITLE2=Carrie UnderwoodLessons Learned
TTITLE3=Wynonna Judd 4 Can't Nobody Love You Like I Do
TTITLE4=Brian McKnight 5 Back At One
TTITLE5=Reba McEntire 6 "till I Said It to You
TTITLE6=Toby Keith 7 How Do You Like Me Now
TTITLE7=Howard Bingham 8 I Will Be
TTITLE8=Hank Williams Jr./Chad Brock 9 Country Boy Can Survive Y2K Version
TTITLE9=Jessica Andrews 10 Unbreakable Heart
TTITLE10=Montgomery Gentry 11 Daddy Want Sell The Farm
TTITLE11=Faith Hill/Tim McGraw 12 Let's Make Love
TTITLE12=Alan Jackson 13 My own kind of hat
TTITLE13=Martina McBride 14 Love's the only house
TTITLE14=Kenny Rogers 15 Buy Me A Rose
EXTD=MediaType: Karaoke CD+G Producer: Unknown
EXTT0=
EXTT1=
EXTT2=
EXTT3=
EXTT4=
EXTT5=
EXTT6=
EXTT7=
EXTT8=
EXTT9=
EXTT10=
EXTT11=
EXTT12=
EXTT13=
EXTT14=
PLAYORDER=
